# xmcd
#
# Track frame offsets: 
#        150
#        16953
#        30465
#        45573
#        60978
#        72678
#        88127
#        107920
#        123449
#        139306
#        154640
#        167017
#
# Disc length: 2402 seconds
#
# Revision: 0
# Processed by: cddbd v1.5.2PL0 Copyright (c) Steve Scherf et al.
# Submitted via: ExactAudioCopy v1.1
#
DISCID=9f09600c
DTITLE=Paul Kelly - Don't Burn Me
DYEAR=1973
DGENRE=R&B
TTITLE0=Come Lay Some Lovin' On Me
TTITLE1=(You Bring Me) Joy
TTITLE2=I Wanna Get Next To You
TTITLE3=I Could Never Love Nobody Like I'm Lovin' You
TTITLE4=Come With Me
TTITLE5=Love Me Now
TTITLE6=Wrapped Up In Your Love
TTITLE7=Sweetness
TTITLE8=Come By Here
TTITLE9=My Love For You Won't Die
TTITLE10=I'd Be Satisfied
TTITLE11=Don't Burn Me
EXTD=
EXTT0=
EXTT1=
EXTT2=
EXTT3=
EXTT4=
EXTT5=
EXTT6=
EXTT7=
EXTT8=
EXTT9=
EXTT10=
EXTT11=
PLAYORDER=
